<svg width="512" height="512" viewBox="0 0 512 512" fill="none" xmlns="http://www.w3.org/2000/svg">
<path d="M358.372 0H153.627C68.956 0 0.067749 68.8883 0.067749 153.559V272.994C0.067749 354.807 64.3749 421.878 145.096 426.323V497.506C145.096 505.499 151.613 512 159.624 512C163.455 512 167.08 510.481 169.819 507.743L185.823 491.739C227.847 449.706 283.734 426.553 343.178 426.553H358.372C443.043 426.553 511.931 357.665 511.931 272.994V153.559C511.931 68.8883 443.043 0 358.372 0ZM145.096 247.401C126.276 247.401 110.972 232.096 110.972 213.276C110.972 194.457 126.276 179.152 145.096 179.152C163.915 179.152 179.22 194.457 179.22 213.276C179.22 232.096 163.907 247.401 145.096 247.401ZM255.999 247.401C237.18 247.401 221.875 232.096 221.875 213.276C221.875 194.457 237.18 179.152 255.999 179.152C274.819 179.152 290.124 194.457 290.124 213.276C290.124 232.096 274.81 247.401 255.999 247.401ZM366.903 247.401C348.084 247.401 332.779 232.096 332.779 213.276C332.779 194.457 348.084 179.152 366.903 179.152C385.723 179.152 401.027 194.457 401.027 213.276C401.027 232.096 385.714 247.401 366.903 247.401Z" fill="black"/>
</svg>
