<svg viewBox="0 0 512 512" xmlns="http://www.w3.org/2000/svg">
    <path
        d="M338.573 290.551C338.573 336.084 301.533 373.125 256 373.125C210.467 373.125 173.441 336.084 173.441 290.551C173.441 245.018 210.467 207.978 256 207.978C301.533 207.978 338.573 245.033 338.573 290.551ZM512 173.301V407.83C512 439.095 486.651 464.445 455.385 464.445H56.6152C25.3495 464.445 0 439.095 0 407.83V173.301C0 142.035 25.3495 116.686 56.6152 116.686H126.252V97.0969C126.252 69.7376 148.417 47.5586 175.79 47.5586H336.21C363.583 47.5586 385.748 69.7376 385.748 97.0969V116.672H455.385C486.651 116.686 512 142.035 512 173.301ZM381.035 290.551C381.035 221.608 324.943 165.516 256 165.516C187.071 165.516 130.979 221.608 130.979 290.551C130.979 359.494 187.071 415.586 256 415.586C324.943 415.586 381.035 359.494 381.035 290.551Z" />
</svg>