<svg width="512" height="512" viewBox="0 0 512 512" fill="none" xmlns="http://www.w3.org/2000/svg">
<g clip-path="url(#clip0_110_283)">
<path d="M284.278 256.025L506.134 34.1676C513.945 26.3566 513.945 13.6926 506.134 5.88265C498.323 -1.92733 485.66 -1.92833 477.85 5.88265L255.992 227.74L34.1354 5.88265C26.3244 -1.92833 13.6604 -1.92833 5.85043 5.88265C-1.95956 13.6936 -1.96056 26.3576 5.85043 34.1676L227.707 256.024L5.85043 477.882C-1.96056 485.693 -1.96056 498.357 5.85043 506.167C9.75542 510.072 14.8744 512.024 19.9934 512.024C25.1124 512.024 30.2304 510.072 34.1364 506.167L255.992 284.31L477.849 506.167C481.754 510.072 486.873 512.024 491.991 512.024C497.11 512.024 502.228 510.072 506.134 506.167C513.945 498.356 513.945 485.692 506.134 477.882L284.278 256.025Z" fill="black"/>
</g>
<defs>
<clipPath id="clip0_110_283">
<rect width="512" height="512" fill="white"/>
</clipPath>
</defs>
</svg>
