<svg width="512" height="512" viewBox="0 0 512 512" fill="none" xmlns="http://www.w3.org/2000/svg">
<path d="M255.998 21.3337C215.216 21.2734 175.124 31.8577 139.686 52.0402C104.248 72.2228 74.6913 101.305 53.9374 136.411C33.1835 171.517 21.9512 211.432 21.351 252.21C20.7507 292.988 30.8033 333.216 50.5149 368.918L22.2269 463.211C21.2726 466.396 21.0761 469.761 21.653 473.035C22.23 476.31 23.5645 479.405 25.5499 482.072C27.5354 484.739 30.1169 486.906 33.0884 488.398C36.0599 489.89 39.3391 490.667 42.6642 490.667C44.7446 490.664 46.8137 490.362 48.8082 489.771L143.102 461.483C174.467 478.783 209.376 488.673 245.154 490.395C280.933 492.118 316.631 485.627 349.513 471.42C382.394 457.212 411.588 435.667 434.855 408.433C458.123 381.199 474.847 349 483.747 314.303C492.646 279.607 493.485 243.333 486.198 208.262C478.911 173.192 463.693 140.254 441.708 111.974C419.724 83.6946 391.558 60.8227 359.367 45.1114C327.177 29.4001 291.817 21.2665 255.998 21.3337V21.3337ZM255.998 448C221.019 447.954 186.723 438.318 156.84 420.139C153.497 418.13 149.669 417.068 145.768 417.067C143.694 417.058 141.63 417.36 139.646 417.963L74.4936 437.526L94.0349 372.352C94.8832 369.515 95.1317 366.533 94.7644 363.595C94.3971 360.656 93.4221 357.827 91.9016 355.286C69.9977 318.989 60.7341 276.46 65.5584 234.342C70.3826 192.224 89.0228 152.89 118.567 122.486C148.11 92.0829 186.893 72.3224 228.856 66.2923C270.818 60.2622 313.596 68.3023 350.505 89.1563C387.415 110.01 416.377 142.503 432.866 181.559C449.355 220.614 452.442 264.031 441.645 305.027C430.848 346.022 406.776 382.286 373.188 408.153C339.601 434.02 298.391 448.032 255.998 448V448Z" fill="black"/>
</svg>
