<svg width="512" height="512" viewBox="0 0 512 512" fill="none" xmlns="http://www.w3.org/2000/svg">
    <g clip-path="url(#clip0_110_191)">
        <path
            d="M256 469.333C138.368 469.333 42.6665 373.632 42.6665 256C42.6665 138.368 138.368 42.6667 256 42.6667C373.632 42.6667 469.333 138.368 469.333 256C469.333 373.632 373.632 469.333 256 469.333ZM256 74.6667C156.011 74.6667 74.6665 156.011 74.6665 256C74.6665 355.989 156.011 437.333 256 437.333C355.989 437.333 437.333 355.989 437.333 256C437.333 156.011 355.989 74.6667 256 74.6667Z" />
        <path
            d="M256 106.667C247.168 106.667 240 99.4987 240 90.6667V16C240 7.168 247.168 0 256 0C264.832 0 272 7.168 272 16V90.6667C272 99.4987 264.832 106.667 256 106.667Z" />
        <path
            d="M496 272H421.333C412.501 272 405.333 264.832 405.333 256C405.333 247.168 412.501 240 421.333 240H496C504.832 240 512 247.168 512 256C512 264.832 504.832 272 496 272Z" />
        <path
            d="M256 512C247.168 512 240 504.832 240 496V421.333C240 412.501 247.168 405.333 256 405.333C264.832 405.333 272 412.501 272 421.333V496C272 504.832 264.832 512 256 512Z" />
        <path
            d="M90.6667 272H16C7.168 272 0 264.832 0 256C0 247.168 7.168 240 16 240H90.6667C99.4987 240 106.667 247.168 106.667 256C106.667 264.832 99.4987 272 90.6667 272Z" />
        <path
            d="M256 320C220.715 320 192 291.285 192 256C192 220.715 220.715 192 256 192C291.285 192 320 220.715 320 256C320 291.285 291.285 320 256 320ZM256 224C238.357 224 224 238.357 224 256C224 273.643 238.357 288 256 288C273.643 288 288 273.643 288 256C288 238.357 273.643 224 256 224Z" />
    </g>
    <defs>
        <clipPath id="clip0_110_191">
            <rect width="512" height="512" fill="white" />
        </clipPath>
    </defs>
</svg>