<svg viewBox="0 0 24 24" fill="none" xmlns="http://www.w3.org/2000/svg">
    <g clip-path="url(#clip0_901_396)">
        <path
            d="M23.9834 7.97492C23.9768 7.89123 23.9694 7.82708 23.9627 7.78303C23.627 3.98088 20.8376 0.971395 17.2174 0.971395C15.1201 0.971395 13.2035 1.96386 11.9485 3.57279C10.7229 1.95303 8.87926 0.971395 6.79308 0.971395C3.18525 0.971395 0.402228 3.9605 0.0439009 7.80463C0.0370127 7.84943 0.0300776 7.90397 0.0237517 7.96812C-0.0374924 8.58919 0.0134428 9.41212 0.250125 10.4148C0.753011 12.5451 1.92897 14.4854 3.58758 15.989L11.3112 22.7797C11.6874 23.1105 12.2503 23.1117 12.6279 22.7826L20.4082 16.003C22.242 14.0945 23.3318 12.3777 23.764 10.3995C23.9808 9.40598 24.0313 8.58844 23.9834 7.97492Z" />
    </g>
</svg>