<svg viewBox="0 0 512 512" fill="none" xmlns="http://www.w3.org/2000/svg">
    <g clip-path="url(#clip0_110_266)">
        <path
            d="M511.645 170.131C511.505 168.346 511.347 166.977 511.205 166.038C504.043 84.9251 444.535 20.7227 367.305 20.7227C322.562 20.7227 281.675 41.8952 254.902 76.2192C228.754 41.6643 189.424 20.7227 144.919 20.7227C67.952 20.7227 8.58086 84.4903 0.936552 166.498C0.789604 167.454 0.641656 168.618 0.506704 169.986C-0.799837 183.236 0.286781 200.791 5.33601 222.182C16.0642 267.629 41.1514 309.022 76.535 341.098L241.305 485.967C249.33 493.024 261.34 493.05 269.396 486.029L435.375 341.397C474.495 300.683 497.746 264.058 506.966 221.855C511.591 200.66 512.668 183.22 511.645 170.131ZM465.296 212.758C458.045 245.95 438.754 276.339 405.965 310.567L255.455 441.616L104.939 309.282C76.0681 283.107 55.5504 249.252 46.8464 212.383C42.8948 195.642 42.1011 182.809 43.0448 173.247L43.3456 171.102C48.8317 109.346 91.4457 63.3747 144.919 63.3747C184.728 63.3747 218.597 87.6531 235.057 126.646C242.393 144.022 267.016 144.022 274.351 126.646C290.482 88.4349 326.752 63.3747 367.305 63.3747C420.78 63.3747 463.392 109.349 468.878 171.123C469.025 172.364 469.065 172.708 469.123 173.455C469.828 182.477 469.009 195.742 465.296 212.758Z" />
    </g>
    <defs>
        <clipPath id="clip0_110_266">
            <rect width="512" height="512" fill="white" />
        </clipPath>
    </defs>
</svg>