<svg width="512" height="512" viewBox="0 0 512 512" fill="none" xmlns="http://www.w3.org/2000/svg">
<path d="M413.227 512H98.7732C56.5333 512 21.3333 473.088 21.3333 426.496V239.616C21.3333 216.064 30.7199 193.024 47.1466 177.152L204.373 21.504C234.88 -7.168 277.12 -7.168 307.627 21.504L464.853 177.152C481.28 192.512 490.667 216.064 490.667 239.616V426.496C488.32 475.648 455.467 512 413.227 512ZM256 52.736C248.96 52.736 241.92 55.296 234.88 60.416L77.6532 216.064C70.6133 221.184 68.2666 231.424 68.2666 242.176V429.056C68.2666 446.976 82.3466 462.848 98.7732 462.848H410.88C427.307 462.848 441.387 447.488 441.387 429.056V242.176C441.387 231.936 436.693 224.256 432 216.064L274.773 60.416C270.08 55.296 263.04 52.736 256 52.736Z" fill="black"/>
</svg>
