<svg viewBox="0 0 512 512" fill="none" xmlns="http://www.w3.org/2000/svg">
    <path
        d="M490.667 276.892H21.3333C9.55729 276.892 0 267.334 0 255.558C0 243.782 9.55729 234.225 21.3333 234.225H490.667C502.443 234.225 512 243.782 512 255.558C512 267.334 502.443 276.892 490.667 276.892Z" />
    <path
        d="M490.667 113.335H21.3333C9.55729 113.335 0 103.778 0 92.002C0 80.226 9.55729 70.6687 21.3333 70.6687H490.667C502.443 70.6687 512 80.226 512 92.002C512 103.778 502.443 113.335 490.667 113.335Z" />
    <path
        d="M490.667 440.442H21.3333C9.55729 440.442 0 430.884 0 419.108C0 407.332 9.55729 397.775 21.3333 397.775H490.667C502.443 397.775 512 407.332 512 419.108C512 430.884 502.443 440.442 490.667 440.442Z" />
</svg>