<svg width="512" height="512" viewBox="0 0 512 512" fill="none" xmlns="http://www.w3.org/2000/svg">
<path d="M256 149.333C285.333 149.333 309.333 125.333 309.333 96C309.333 66.6667 285.333 42.6667 256 42.6667C226.667 42.6667 202.667 66.6667 202.667 96C202.667 125.333 226.667 149.333 256 149.333ZM256 202.667C226.667 202.667 202.667 226.667 202.667 256C202.667 285.333 226.667 309.333 256 309.333C285.333 309.333 309.333 285.333 309.333 256C309.333 226.667 285.333 202.667 256 202.667ZM256 362.667C226.667 362.667 202.667 386.667 202.667 416C202.667 445.333 226.667 469.333 256 469.333C285.333 469.333 309.333 445.333 309.333 416C309.333 386.667 285.333 362.667 256 362.667Z" fill="black"/>
</svg>
