<svg width="512" height="520" viewBox="0 0 512 520" fill="none" xmlns="http://www.w3.org/2000/svg">
<g filter="url(#filter0_d_110_201)">
<path d="M64.5 192C64.5 86.3881 150.388 0.5 256 0.5C361.612 0.5 447.5 86.3881 447.5 192C447.5 225.17 436.699 260.977 420.352 296.166C404.006 331.351 382.131 365.887 360.019 396.507C315.793 457.748 270.646 503.287 266.974 506.975C263.935 509.982 259.967 511.5 256 511.5C252.033 511.5 248.065 509.982 245.026 506.975C241.354 503.287 196.207 457.748 151.981 396.507C129.869 365.887 107.994 331.351 91.6485 296.166C75.3011 260.977 64.5 225.17 64.5 192Z" fill="#F89132"/>
</g>
<path d="M256 338C336.634 338 402 272.634 402 192C402 111.366 336.634 46 256 46C175.366 46 110 111.366 110 192C110 272.634 175.366 338 256 338Z" fill="#FAFAFA"/>
<path d="M208.847 190.68C209.327 187.68 209.567 184.32 209.567 180.84C209.567 176.64 209.207 172.68 208.487 169.08H227.687V190.68H208.847ZM181.007 206.04C172.967 206.04 167.447 197.28 167.447 180.84C167.447 164.52 172.967 155.76 181.007 155.76C189.167 155.76 194.687 164.52 194.687 180.84C194.687 197.28 189.167 206.04 181.007 206.04ZM227.687 133.68V156.36H204.167C199.247 146.88 190.967 141.48 181.007 141.48C164.567 141.48 152.447 156.6 152.447 180.84C152.447 205.2 164.567 220.44 181.007 220.44C191.687 220.56 200.207 214.32 205.127 203.52H227.687V244.56H243.527V133.68H227.687ZM267.278 145.2V157.8H304.118C301.838 182.28 289.598 199.56 261.398 213.12L269.678 225.6C308.918 206.64 320.318 179.04 320.318 145.2H267.278ZM337.238 133.68V244.2H353.198V133.68H337.238Z" fill="black"/>
<defs>
<filter id="filter0_d_110_201" x="60.5" y="0.5" width="391" height="519" filterUnits="userSpaceOnUse" color-interpolation-filters="sRGB">
<feFlood flood-opacity="0" result="BackgroundImageFix"/>
<feColorMatrix in="SourceAlpha" type="matrix" values="0 0 0 0 0 0 0 0 0 0 0 0 0 0 0 0 0 0 127 0" result="hardAlpha"/>
<feOffset dy="4"/>
<feGaussianBlur stdDeviation="2"/>
<feComposite in2="hardAlpha" operator="out"/>
<feColorMatrix type="matrix" values="0 0 0 0 0 0 0 0 0 0 0 0 0 0 0 0 0 0 0.25 0"/>
<feBlend mode="normal" in2="BackgroundImageFix" result="effect1_dropShadow_110_201"/>
<feBlend mode="normal" in="SourceGraphic" in2="effect1_dropShadow_110_201" result="shape"/>
</filter>
</defs>
</svg>
