<svg width="512" height="512" viewBox="0 0 512 512" fill="none" xmlns="http://www.w3.org/2000/svg">
<path d="M64.5 192C64.5 86.3881 150.388 0.5 256 0.5C361.612 0.5 447.5 86.3881 447.5 192C447.5 225.17 436.699 260.977 420.352 296.166C404.006 331.351 382.131 365.887 360.019 396.507C315.793 457.748 270.646 503.287 266.974 506.975C263.935 509.982 259.967 511.5 256 511.5C252.033 511.5 248.065 509.982 245.026 506.975C241.354 503.287 196.207 457.748 151.981 396.507C129.869 365.887 107.994 331.351 91.6485 296.166C75.3011 260.977 64.5 225.17 64.5 192Z" fill="#F89132"/>
<path d="M256 338C336.634 338 402 272.634 402 192C402 111.366 336.634 46 256 46C175.366 46 110 111.366 110 192C110 272.634 175.366 338 256 338Z" fill="#FAFAFA"/>
</svg>
