<svg width="512" height="512" viewBox="0 0 512 512" fill="none" xmlns="http://www.w3.org/2000/svg">
<path d="M463.792 60.4006C461.664 51.4886 451.872 45.4246 442.992 48.5766C442.992 48.5766 58.3358 184.337 58.2718 184.385C52.3679 186.577 48.0319 192.209 47.7119 198.657C47.4239 204.849 51.2479 211.297 56.8959 213.921L205.888 283.473C205.888 283.473 278.48 210.881 278.608 210.753C293.008 196.353 316 218.625 301.232 233.377L228.512 306.097C228.512 306.097 297.968 454.929 298.096 455.169C300.928 460.609 306.464 464.065 312.544 464.337C319.152 464.641 325.264 459.585 327.632 453.665C327.632 453.665 463.312 69.2326 463.392 68.9926C464.4 66.2246 464.464 63.2326 463.792 60.4006V60.4006Z" fill="black"/>
</svg>
