<svg width="512" height="512" viewBox="0 0 512 512" fill="none" xmlns="http://www.w3.org/2000/svg">
<path d="M406 332C376.359 332 350.239 346.581 333.833 368.755L191.99 296.124C194.345 288.097 196 279.778 196 271C196 259.094 193.559 247.775 189.342 237.364L337.787 148.036C354.307 167.424 378.589 180 406 180C455.629 180 496 139.629 496 90C496 40.371 455.629 0 406 0C356.371 0 316 40.371 316 90C316 101.437 318.355 112.286 322.262 122.358L173.375 211.948C156.869 193.136 132.937 181 106 181C56.371 181 16 221.371 16 271C16 320.629 56.371 361 106 361C136.13 361 162.691 345.991 179.035 323.194L320.411 395.589C317.807 403.995 316 412.75 316 422C316 471.629 356.371 512 406 512C455.629 512 496 471.629 496 422C496 372.371 455.629 332 406 332Z" fill="black"/>
</svg>
