<svg width="512" height="512" viewBox="0 0 512 512" fill="none" xmlns="http://www.w3.org/2000/svg">
<path d="M470.912 131.788C470.299 118.319 470.299 105.461 470.299 92.6039C470.299 82.1955 462.34 74.2362 451.932 74.2362C375.4 74.2362 317.235 52.1949 268.867 5.05112C261.52 -1.68371 250.499 -1.68371 243.152 5.05112C194.784 52.1949 136.619 74.2362 60.0872 74.2362C49.6788 74.2362 41.7194 82.1955 41.7194 92.6039C41.7194 105.461 41.7194 118.319 41.1072 131.788C38.6582 260.362 34.9846 436.692 249.887 510.775L256.009 512L262.132 510.775C476.422 436.692 473.361 260.975 470.912 131.788ZM241.315 309.955C237.642 313.016 233.356 314.853 228.458 314.853H227.846C222.948 314.853 218.049 312.404 214.988 308.731L158.048 245.668L185.6 221.178L230.295 270.771L329.48 176.483L354.583 203.422L241.315 309.955Z" fill="black"/>
</svg>
