<svg width="512" height="512" viewBox="0 0 512 512" fill="none" xmlns="http://www.w3.org/2000/svg">
<g clip-path="url(#clip0_110_176)">
<path d="M255.999 63.9948C220.056 63.9948 185.617 72.1413 153.646 85.768L178.02 110.142C202.717 101.194 228.9 95.9946 255.999 95.9946C354.969 95.9946 443.924 160.073 479.034 255.997C465.655 292.552 444.377 324.382 417.783 349.904L440.286 372.407C471.515 342.298 496.292 304.629 511.145 261.169C512.285 257.809 512.285 254.184 511.145 250.825C472.956 139.074 370.422 63.9948 255.999 63.9948V63.9948Z" fill="black"/>
<path d="M319.57 251.688L348.428 280.546C350.528 272.663 352.007 264.536 352.007 255.999C352.007 203.061 308.944 159.997 256.005 159.997C247.468 159.997 239.341 161.476 231.458 163.576L260.316 192.434C292.121 194.598 317.407 219.883 319.57 251.688V251.688Z" fill="black"/>
<path d="M31.9971 54.6236L96.8766 119.503C53.907 152 19.4108 196.531 0.855622 250.829C-0.285207 254.189 -0.285207 257.814 0.855622 261.173C39.0437 372.925 141.576 448.004 256 448.004C303.566 448.004 348.49 434.027 388.121 410.748L457.378 480.005L480.003 457.38L54.6214 31.9974L31.9962 54.6226L31.9971 54.6236ZM256.001 416.004C157.031 416.004 68.0763 351.926 32.9661 256.002C50.2829 208.687 81.4021 170.2 119.716 142.342L177.917 200.544C166.732 216.241 159.999 235.302 159.999 256.001C159.999 308.939 203.062 352.003 256.001 352.003C276.7 352.003 295.761 345.27 311.458 334.085L364.705 387.331C331.658 405.239 294.85 416.004 256.001 416.004ZM201.066 223.694L288.31 310.938C278.791 316.559 267.836 320.004 256.001 320.004C220.703 320.004 192 291.3 192 256.003C192 244.168 195.445 233.213 201.066 223.694V223.694Z" fill="black"/>
</g>
<defs>
<clipPath id="clip0_110_176">
<rect width="512" height="512" fill="white"/>
</clipPath>
</defs>
</svg>
