<svg viewBox="0 0 512 512" fill="none" xmlns="http://www.w3.org/2000/svg">
    <path
        d="M394.015 371.006H386.8V235.944C386.8 163.821 328.124 105.145 256.001 105.145C183.879 105.145 125.203 163.821 125.203 235.944V371.006H117.988C88.5667 371.006 64.6317 394.941 64.6317 424.362V494.444C64.6317 504.139 72.4913 511.999 82.1871 511.999H429.819C439.515 511.999 447.375 504.139 447.375 494.444V424.362C447.371 394.943 423.436 371.006 394.015 371.006ZM160.312 235.945C160.312 183.182 203.239 140.258 256 140.258C308.761 140.258 351.687 183.184 351.687 235.945V371.008H160.312V235.945ZM412.26 476.888H99.739V424.362C99.739 414.301 107.923 406.117 117.984 406.117H394.013C404.074 406.117 412.259 414.301 412.259 424.362V476.888H412.26Z" />
    <path
        d="M255.998 70.2199C265.694 70.2199 273.553 62.3603 273.553 52.6645V17.5554C273.553 7.85956 265.694 0 255.998 0C246.302 0 238.443 7.85956 238.443 17.5554V52.6645C238.443 62.3603 246.302 70.2199 255.998 70.2199Z" />
    <path
        d="M99.6201 124.71C103.049 128.139 107.541 129.852 112.034 129.852C116.526 129.852 121.02 128.139 124.447 124.71C131.302 117.855 131.302 106.739 124.447 99.8818L99.6237 75.0567C92.7683 68.2013 81.6522 68.2013 74.795 75.0567C67.9396 81.9121 67.9396 93.0282 74.795 99.8853L99.6201 124.71Z" />
    <path
        d="M399.966 129.854C404.459 129.854 408.953 128.14 412.38 124.712L437.205 99.8865C444.06 93.0311 444.06 81.915 437.205 75.0578C430.349 68.2024 419.233 68.2024 412.376 75.0578L387.553 99.8847C380.697 106.74 380.697 117.856 387.553 124.713C390.98 128.14 395.474 129.854 399.966 129.854Z" />
    <path
        d="M256 159.449C213.82 159.449 179.503 193.764 179.503 235.946C179.503 245.642 187.362 253.502 197.058 253.502C206.754 253.502 214.614 245.642 214.614 235.946C214.614 213.126 233.18 194.559 256 194.559C265.696 194.559 273.556 186.7 273.556 177.004C273.556 167.308 265.696 159.449 256 159.449Z" />
</svg>