<svg width="512" height="512" viewBox="0 0 512 512" fill="none" xmlns="http://www.w3.org/2000/svg">
<path d="M255.995 21.3337C215.213 21.2733 175.121 31.8576 139.684 52.0402C104.246 72.2227 74.6888 101.305 53.9349 136.411C33.1809 171.517 21.9486 211.432 21.3484 252.21C20.7481 292.987 30.8007 333.216 50.5123 368.918L22.2243 463.211C21.27 466.396 21.0735 469.761 21.6505 473.035C22.2274 476.31 23.5619 479.405 25.5474 482.072C27.5328 484.739 30.1143 486.906 33.0858 488.398C36.0573 489.89 39.3365 490.667 42.6617 490.667C44.742 490.664 46.8111 490.362 48.8057 489.771L143.099 461.483C174.464 478.783 209.373 488.673 245.152 490.395C280.93 492.117 316.628 485.626 349.51 471.419C382.392 457.212 411.585 435.667 434.853 408.433C458.12 381.199 474.844 349 483.744 314.303C492.643 279.607 493.482 243.333 486.195 208.262C478.909 173.192 463.69 140.254 441.706 111.974C419.722 83.6945 391.555 60.8226 359.365 45.1114C327.175 29.4001 291.815 21.2664 255.995 21.3337V21.3337ZM255.995 448C221.017 447.954 186.721 438.318 156.838 420.139C153.494 418.13 149.667 417.068 145.766 417.067C143.691 417.058 141.628 417.36 139.643 417.963L74.491 437.526L94.0323 372.352C94.8807 369.515 95.1291 366.533 94.7618 363.594C94.3945 360.656 93.4196 357.827 91.899 355.286C69.9951 318.989 60.7316 276.46 65.5558 234.342C70.38 192.223 89.0203 152.89 118.564 122.486C148.108 92.0829 186.891 72.3223 228.853 66.2922C270.815 60.2621 313.593 68.3022 350.503 89.1562C387.412 110.01 416.374 142.503 432.863 181.559C449.352 220.614 452.44 264.031 441.643 305.027C430.846 346.022 406.773 382.286 373.186 408.153C339.598 434.02 298.388 448.032 255.995 448V448Z" fill="black"/>
</svg>
