<svg viewBox="0 0 512 512" xmlns="http://www.w3.org/2000/svg">
    <g clip-path="url(#clip0_110_226)">
        <path
            d="M407.521 62.85C367.191 22.3468 313.462 0.0403153 256.23 0.0403153H255.983C140.735 -2.31852 39.6266 99.1765 41.9994 214.383C45.0162 295.732 123.276 399.044 184.22 478.416C202.117 499.796 228.196 512 256.212 512C285.21 511.999 312.134 498.933 330.079 476.151C375.29 419.969 472.914 284.839 469.967 214.381C469.968 157.108 447.791 103.293 407.521 62.85V62.85ZM298.659 451.401C277.991 478.664 234.515 478.713 213.84 451.448C131.202 346.223 81.9947 258.592 81.9947 214.382C81.9947 118.248 160.045 40.0386 255.983 40.0386H256.23C352.031 40.0386 429.971 118.249 429.971 214.382C429.971 259.073 382.109 345.463 298.659 451.401V451.401ZM257.107 299.017C210.241 299.017 172.113 260.888 172.113 214.023C176.781 101.266 337.449 101.299 342.101 214.024C342.101 260.889 303.973 299.017 257.107 299.017ZM257.107 169.026C232.295 169.026 212.11 189.211 212.11 214.023C214.582 273.718 299.641 273.7 302.104 214.023C302.104 189.211 281.919 169.026 257.107 169.026Z" />
    </g>
    <defs>
        <clipPath id="clip0_110_226">
            <rect width="512" height="512" fill="white" />
        </clipPath>
    </defs>
</svg>