<svg viewBox="0 0 512 512" xmlns="http://www.w3.org/2000/svg">
    <path
        d="M384 42.6667C431.061 42.6667 469.333 80.9387 469.333 128V384C469.333 431.061 431.061 469.333 384 469.333H128C80.9387 469.333 42.6667 431.061 42.6667 384V128C42.6667 80.9387 80.9387 42.6667 128 42.6667H384ZM384 0H128C57.3013 0 0 57.3013 0 128V384C0 454.699 57.3013 512 128 512H384C454.699 512 512 454.699 512 384V128C512 57.3013 454.699 0 384 0Z" />
    <path
        d="M256 384C244.224 384 234.667 374.464 234.667 362.667V149.333C234.667 137.557 244.224 128 256 128C267.776 128 277.333 137.557 277.333 149.333V362.667C277.333 374.464 267.776 384 256 384Z" />
    <path
        d="M128 256C128 244.224 137.536 234.667 149.333 234.667H362.667C374.443 234.667 384 244.224 384 256C384 267.776 374.443 277.334 362.667 277.334H149.333C137.536 277.334 128 267.776 128 256Z" />
</svg>