<svg viewBox="0 0 512 512" xmlns="http://www.w3.org/2000/svg">
    <path
        d="M97.8805 456.942C99.0042 458.066 100.377 459.065 101.876 459.939C144.823 492.524 198.133 512 256.062 512C313.992 512 367.302 492.399 410.249 459.814C411.747 458.94 412.996 458.066 414.244 456.817C473.672 409.875 512 337.463 512 255.938C512 114.86 397.14 0 256.062 0C114.985 0 0 114.985 0 256.062C0 337.463 38.3282 410 97.8805 456.942V456.942ZM255.938 474.546C210.243 474.546 167.795 460.438 132.713 436.342C151.19 384.78 200.131 349.698 255.938 349.698C291.02 349.698 323.98 363.307 348.699 388.026C362.433 401.76 372.67 418.364 379.037 436.342C343.955 460.438 301.632 474.546 255.938 474.546V474.546ZM174.787 231.093C174.787 186.397 211.242 149.942 255.938 149.942C300.633 149.942 337.089 186.397 337.089 231.093C337.089 275.788 300.633 312.244 255.938 312.244C211.242 312.244 174.787 275.788 174.787 231.093ZM255.938 37.5791C376.416 37.5791 474.421 135.585 474.421 256.062C474.421 316.738 449.576 371.671 409.5 411.248C401.26 392.895 389.649 375.916 375.167 361.434C360.56 346.827 343.581 335.341 325.228 327.101C355.067 305.502 374.543 270.545 374.543 230.968C374.543 165.548 321.358 112.363 255.938 112.363C190.517 112.363 137.332 165.548 137.332 230.968C137.332 270.545 156.809 305.502 186.647 326.976C149.692 343.705 119.479 373.294 102.375 411.123C62.299 371.671 37.4543 316.738 37.4543 256.062C37.4543 135.585 135.46 37.5791 255.938 37.5791Z" />
</svg>